  0
SECTION
  2
HEADER
  9
$ACADVER
  1
AC1018
  9
$ACADMAINTVER
 70
     0
  9
$DWGCODEPAGE
  3
ANSI_1252
  9
$EXTMIN
 10
-30848.1470651425
 20
-46826.1568917756
 30
0.0
  9
$EXTMAX
 10
-28909.2946020129
 20
-43827.0940321407
 30
0.0
  9
$LIMMIN
 10
0.0
 20
0.0
  9
$LIMMAX
 10
12.0
 20
9.0
  9
$ORTHOMODE
 70
     0
  9
$REGENMODE
 70
     1
  9
$FILLMODE
 70
     1
  9
$QTEXTMODE
 70
     0
  9
$MIRRTEXT
 70
     1
  9
$LTSCALE
 40
1.0
  9
$ATTMODE
 70
     1
  9
$TEXTSIZE
 40
0.2
  9
$TRACEWID
 40
0.05
  9
$TEXTSTYLE
  7
Standard
  9
$CLAYER
  8
0
  9
$CELTYPE
  6
ByLayer
  9
$CECOLOR
 62
   256
  9
$CELTSCALE
 40
1.0
  9
$DISPSILH
 70
     0
  9
$LUNITS
 70
     2
  9
$LUPREC
 70
     4
  9
$SKETCHINC
 40
0.1
  9
$FILLETRAD
 40
0.5
  9
$AUNITS
 70
     0
  9
$AUPREC
 70
     0
  9
$MENU
  1
.
  9
$ELEVATION
 40
0.0
  9
$PELEVATION
 40
0.0
  9
$THICKNESS
 40
0.0
  9
$LIMCHECK
 70
     0
  9
$CHAMFERA
 40
0.5
  9
$CHAMFERB
 40
0.5
  9
$CHAMFERC
 40
1.0
  9
$CHAMFERD
 40
0.0
  9
$SKPOLY
 70
     0
  9
$ANGBASE
 50
0.0
  9
$ANGDIR
 70
     0
  9
$PDMODE
 70
     0
  9
$PDSIZE
 40
0.0
  9
$PLINEWID
 40
0.0
  9
$SPLFRAME
 70
     0
  9
$SPLINETYPE
 70
     6
  9
$SPLINESEGS
 70
     8
  9
$HANDSEED
  5
00020001
  9
$SURFTAB1
 70
     6
  9
$SURFTAB2
 70
     6
  9
$SURFTYPE
 70
     6
  9
$SURFU
 70
     6
  9
$SURFV
 70
     6
  9
$UCSBASE
  2

  9
$UCSNAME
  2

  9
$UCSORG
 10
0.0
 20
0.0
 30
0.0
  9
$UCSXDIR
 10
1.0
 20
0.0
 30
0.0
  9
$UCSYDIR
 10
0.0
 20
1.0
 30
0.0
  9
$UCSORTHOREF
  2

  9
$UCSORTHOVIEW
 70
     0
  9
$UCSORGTOP
 10
0.0
 20
0.0
 30
0.0
  9
$UCSORGBOTTOM
 10
0.0
 20
0.0
 30
0.0
  9
$UCSORGLEFT
 10
0.0
 20
0.0
 30
0.0
  9
$UCSORGRIGHT
 10
0.0
 20
0.0
 30
0.0
  9
$UCSORGFRONT
 10
0.0
 20
0.0
 30
0.0
  9
$UCSORGBACK
 10
0.0
 20
0.0
 30
0.0
  9
$PUCSBASE
  2

  9
$PUCSNAME
  2

  9
$PUCSORG
 10
0.0
 20
0.0
 30
0.0
  9
$PUCSXDIR
 10
1.0
 20
0.0
 30
0.0
  9
$PUCSYDIR
 10
0.0
 20
1.0
 30
0.0
  9
$PUCSORTHOREF
  2

  9
$PUCSORTHOVIEW
 70
     0
  9
$PUCSORGTOP
 10
0.0
 20
0.0
 30
0.0
  9
$PUCSORGBOTTOM
 10
0.0
 20
0.0
 30
0.0
  9
$PUCSORGLEFT
 10
0.0
 20
0.0
 30
0.0
  9
$PUCSORGRIGHT
 10
0.0
 20
0.0
 30
0.0
  9
$PUCSORGFRONT
 10
0.0
 20
0.0
 30
0.0
  9
$PUCSORGBACK
 10
0.0
 20
0.0
 30
0.0
  9
$WORLDVIEW
 70
     1
  9
$SHADEDGE
 70
     3
  9
$SHADEDIF
 70
    70
  9
$TILEMODE
 70
     1
  9
$MAXACTVP
 70
    64
  9
$PINSBASE
 10
0.0
 20
0.0
 30
0.0
  9
$PLIMCHECK
 70
     0
  9
$PEXTMIN
 10
1.000000000000000E+20
 20
1.000000000000000E+20
 30
1.000000000000000E+20
  9
$PEXTMAX
 10
-1.000000000000000E+20
 20
-1.000000000000000E+20
 30
-1.000000000000000E+20
  9
$PLIMMIN
 10
0.0
 20
0.0
  9
$PLIMMAX
 10
12.0
 20
9.0
  9
$UNITMODE
 70
     0
  9
$VISRETAIN
 70
     1
  9
$PLINEGEN
 70
     0
  9
$PSLTSCALE
 70
     1
  9
$TREEDEPTH
 70
  3020
  9
$CMLSTYLE
  2
Standard
  9
$CMLJUST
 70
     0
  9
$CMLSCALE
 40
1.0
  9
$PROXYGRAPHICS
 70
     1
  9
$MEASUREMENT
 70
     0
  9
$CELWEIGHT
370
    -1
  9
$ENDCAPS
280
     0
  9
$JOINSTYLE
280
     0
  9
$LWDISPLAY
290
     0
  9
$INSUNITS
 70
6
  9
$HYPERLINKBASE
  1

  9
$STYLESHEET
  1

  9
$XEDIT
290
     1
  9
$CEPSNTYPE
380
     0
  9
$PSTYLEMODE
290
     1
  9
$EXTNAMES
290
     1
  9
$PSVPSCALE
 40
0.0
  9
$OLESTARTUP
290
     0
  9
$SORTENTS
280
   127
  9
$INDEXCTL
280
     0
  9
$HIDETEXT
280
     1
  9
$XCLIPFRAME
290
     0
  9
$HALOGAP
280
     0
  9
$OBSCOLOR
 70
   257
  9
$OBSLTYPE
280
     0
  9
$INTERSECTIONDISPLAY
280
     0
  9
$INTERSECTIONCOLOR
 70
   257
  9
$DIMASSOC
280
     2
  9
$PROJECTNAME
  1

  0
ENDSEC
  0
SECTION
  2
CLASSES
  0
CLASS
  1
ACDBDICTIONARYWDFLT
  2
AcDbDictionaryWithDefault
  3
ObjectDBX Classes
 90
        0
 91
        4
280
     0
281
     0
  0
ENDSEC
  0
SECTION
  2
TABLES
  0
TABLE
  2
VPORT
  5
8
330
0
100
AcDbSymbolTable
 70
     1
  0
VPORT
  5
29
330
8
100
AcDbSymbolTableRecord
100
AcDbViewportTableRecord
  2
*Active
 70
     0
 10
0.0
 20
0.0
 11
1.0
 21
1.0
 12
80.25
 22
106.4409457059851
 13
0.0
 23
0.0
 14
0.5
 24
0.5
 15
0.5
 25
0.5
 16
0.0
 26
0.0
 36
1.0
 17
0.0
 27
0.0
 37
0.0
 40
113.3818914119703
 41
0.8863849310366128
 42
50.0
 43
0.0
 44
0.0
 50
0.0
 51
0.0
 71
     0
 72
  1000
 73
     1
 74
     3
 75
     0
 76
     0
 77
     0
 78
     0
281
     0
 65
     1
110
0.0
120
0.0
130
0.0
111
1.0
121
0.0
131
0.0
112
0.0
122
1.0
132
0.0
 79
     0
146
0.0
  0
ENDTAB
  0
TABLE
  2
LTYPE
  5
5
330
0
100
AcDbSymbolTable
 70
     1
  0
LTYPE
  5
14
330
5
100
AcDbSymbolTableRecord
100
AcDbLinetypeTableRecord
  2
ByBlock
 70
     0
  3

 72
    65
 73
     0
 40
0.0
  0
LTYPE
  5
15
330
5
100
AcDbSymbolTableRecord
100
AcDbLinetypeTableRecord
  2
ByLayer
 70
     0
  3

 72
    65
 73
     0
 40
0.0
  0
LTYPE
  5
16
330
5
100
AcDbSymbolTableRecord
100
AcDbLinetypeTableRecord
  2
Continuous
 70
     0
  3
Solid line
 72
    65
 73
     0
 40
0.0
  0
ENDTAB
  0
TABLE
  2
LAYER
  5
2
330
0
100
AcDbSymbolTable
 70
     1
  0
LAYER
  5
10
330
2
100
AcDbSymbolTableRecord
100
AcDbLayerTableRecord
  2
0
 70
     0
 62
     7
  6
Continuous
370
    -3
390
F
  0
ENDTAB
  0
TABLE
  2
STYLE
  5
3
330
0
100
AcDbSymbolTable
 70
     1
  0
STYLE
  5
11
330
3
100
AcDbSymbolTableRecord
100
AcDbTextStyleTableRecord
  2
Standard
 70
     0
 40
0.0
 41
1.0
 50
0.0
 71
     0
 42
0.2
  3
txt
  4

  0
ENDTAB
  0
TABLE
  2
VIEW
  5
6
330
0
100
AcDbSymbolTable
 70
     0
  0
ENDTAB
  0
TABLE
  2
UCS
  5
7
330
0
100
AcDbSymbolTable
 70
     0
  0
ENDTAB
  0
TABLE
  2
APPID
  5
9
330
0
100
AcDbSymbolTable
 70
     1
  0
APPID
  5
12
330
9
100
AcDbSymbolTableRecord
100
AcDbRegAppTableRecord
  2
ACAD
 70
     0
  0
ENDTAB
  0
TABLE
  2
DIMSTYLE
  5
A
330
0
100
AcDbSymbolTable
 70
     1
100
AcDbDimStyleTable
  0
DIMSTYLE
105
27
330
A
100
AcDbSymbolTableRecord
100
AcDbDimStyleTableRecord
  2
Standard
 70
     0
340
11
  0
ENDTAB
  0
TABLE
  2
BLOCK_RECORD
  5
1
330
0
100
AcDbSymbolTable
 70
     1
  0
BLOCK_RECORD
  5
1F
330
1
100
AcDbSymbolTableRecord
100
AcDbBlockTableRecord
  2
*Model_Space
340
22
  0
BLOCK_RECORD
  5
1B
330
1
100
AcDbSymbolTableRecord
100
AcDbBlockTableRecord
  2
*Paper_Space
340
1E
  0
ENDTAB
  0
ENDSEC
  0
SECTION
  2
BLOCKS
  0
BLOCK
  5
20
330
1F
100
AcDbEntity
  8
0
100
AcDbBlockBegin
  2
*Model_Space
 70
     0
 10
0.0
 20
0.0
 30
0.0
  3
*Model_Space
  1

  0
ENDBLK
  5
21
330
1F
100
AcDbEntity
  8
0
100
AcDbBlockEnd
  0
BLOCK
  5
1C
330
1B
100
AcDbEntity
 67
     1
  8
0
100
AcDbBlockBegin
  2
*Paper_Space
 70
     0
 10
0.0
 20
0.0
 30
0.0
  3
*Paper_Space
  1

  0
ENDBLK
  5
1D
330
1B
100
AcDbEntity
 67
     1
  8
0
100
AcDbBlockEnd
  0
ENDSEC
  0
SECTION
  2
ENTITIES
  0
LWPOLYLINE
  5
20000
100
AcDbEntity
  8
0
100
AcDbPolyline
 70
0
 90
523
 10
-29635.5069119026
 20
-46730.9700333863
 10
-29627.973720303
 20
-46730.5068993399
 10
-29636.4661314826
 20
-46763.2731347936
 10
-29641.8335561195
 20
-46769.3016449202
 10
-29647.5184790027
 20
-46797.2401249606
 10
-29676.5499628437
 20
-46792.1845396366
 10
-29724.6514384117
 20
-46781.8621935124
 10
-29803.454080612
 20
-46759.0227191689
 10
-29854.0697641578
 20
-46809.4985528287
 10
-29865.5545094596
 20
-46826.1568917756
 10
-30008.4049178082
 20
-46734.8495732737
 10
-30007.8055844598
 20
-46729.1158887086
 10
-30009.13620342
 20
-46723.2203963997
 10
-30021.0049840515
 20
-46711.1876549145
 10
-30045.5559461604
 20
-46705.3138689148
 10
-30073.3409051639
 20
-46707.0397382619
 10
-30085.7369134996
 20
-46706.2546496505
 10
-30080.2101225018
 20
-46708.5042969533
 10
-30106.3474184562
 20
-46744.2711229962
 10
-30190.949718519
 20
-46732.5781221745
 10
-30230.4485234989
 20
-46699.4654813669
 10
-30238.2442274979
 20
-46670.3168852392
 10
-30183.3836591638
 20
-46613.5846432243
 10
-30160.2720896326
 20
-46606.4992087563
 10
-30184.6733565205
 20
-46588.6327099094
 10
-30198.1335465323
 20
-46578.3028508175
 10
-30208.0349617262
 20
-46566.2099450412
 10
-30210.2134607686
 20
-46556.4840501327
 10
-30207.6150495491
 20
-46543.9009260941
 10
-30203.339498948
 20
-46536.5377523113
 10
-30199.9841480088
 20
-46514.5271153711
 10
-30206.026066415
 20
-46494.8366462314
 10
-30212.3380734984
 20
-46485.3297364559
 10
-30229.5582140788
 20
-46472.0138503167
 10
-30246.7839006511
 20
-46471.0457604308
 10
-30256.5793123766
 20
-46467.8396137966
 10
-30272.3602076856
 20
-46449.7358267904
 10
-30277.4882878983
 20
-46441.2424578592
 10
-30287.2860374914
 20
-46422.715171794
 10
-30302.9205337804
 20
-46409.5820290932
 10
-30352.166814224
 20
-46382.2560556501
 10
-30370.4068751821
 20
-46375.8148310309
 10
-30385.2841207932
 20
-46369.2518888802
 10
-30399.0012454938
 20
-46344.054604533
 10
-30406.7671939029
 20
-46335.7740561889
 10
-30415.1255032315
 20
-46328.4566780695
 10
-30434.7547277735
 20
-46330.7750099476
 10
-30442.8672981579
 20
-46339.1012778234
 10
-30446.5881301889
 20
-46343.2267237767
 10
-30447.1386828459
 20
-46350.5248345745
 10
-30444.6740810022
 20
-46366.6198449535
 10
-30444.2989126791
 20
-46376.1954263624
 10
-30448.1808920888
 20
-46385.0464543916
 10
-30458.9051493123
 20
-46388.4934392171
 10
-30471.4710540637
 20
-46389.826223585
 10
-30496.8537198993
 20
-46388.9851122481
 10
-30504.6842728569
 20
-46386.3623043356
 10
-30516.8400284025
 20
-46381.7166483431
 10
-30554.7233719459
 20
-46365.8110566646
 10
-30556.6981020185
 20
-46360.2239078441
 10
-30556.4759323229
 20
-46348.2762047072
 10
-30558.0548804228
 20
-46335.6233988086
 10
-30561.4001334383
 20
-46317.3952499476
 10
-30565.3437463056
 20
-46309.8154919909
 10
-30571.5812754307
 20
-46302.5274175889
 10
-30575.5109883986
 20
-46298.8306762532
 10
-30581.3343201336
 20
-46297.6236415323
 10
-30594.264428602
 20
-46296.8360096528
 10
-30597.8657663803
 20
-46295.1706247606
 10
-30609.1321021127
 20
-46284.9253134552
 10
-30618.5464782471
 20
-46273.7766166083
 10
-30625.9277973754
 20
-46256.4886934486
 10
-30630.4289176792
 20
-46250.2937683944
 10
-30633.8771529014
 20
-46248.9173436378
 10
-30644.9675235176
 20
-46250.7985638642
 10
-30661.9472694168
 20
-46254.8783789531
 10
-30664.5024516893
 20
-46257.3547026384
 10
-30667.4812339428
 20
-46261.7821512899
 10
-30667.0202625674
 20
-46264.7791728607
 10
-30662.663831523
 20
-46273.5141939045
 10
-30661.9150589112
 20
-46277.1556683492
 10
-30665.0236889133
 20
-46279.8075976195
 10
-30674.6604948808
 20
-46278.0215917763
 10
-30680.1192896681
 20
-46273.5984236862
 10
-30685.3007234024
 20
-46264.9493108356
 10
-30689.5138226685
 20
-46254.0735881792
 10
-30692.4157473373
 20
-46244.0566274547
 10
-30696.4969099455
 20
-46226.447167133
 10
-30699.9877642829
 20
-46219.0242235022
 10
-30706.7185394464
 20
-46215.5396703477
 10
-30721.3551149503
 20
-46231.3540190208
 10
-30724.1355574009
 20
-46238.7110043857
 10
-30730.3569777826
 20
-46250.4827311676
 10
-30738.5643628912
 20
-46257.3328763752
 10
-30743.2370500605
 20
-46258.8699696267
 10
-30762.689123711
 20
-46254.5094732844
 10
-30767.716481167
 20
-46251.1416884867
 10
-30769.5436790933
 20
-46247.4964861518
 10
-30771.3675359774
 20
-46234.9981118874
 10
-30776.801572032
 20
-46202.3956634379
 10
-30776.6107407768
 20
-46194.3641098764
 10
-30776.1112088276
 20
-46188.796536679
 10
-30775.6621945883
 20
-46184.7376024702
 10
-30788.2827994231
 20
-46170.4712829925
 10
-30794.445299619
 20
-46165.1580777557
 10
-30812.5846189735
 20
-46166.5044269497
 10
-30814.6242883447
 20
-46158.7869035514
 10
-30812.8651362259
 20
-46153.2569642006
 10
-30807.6227474123
 20
-46141.5706665292
 10
-30805.8898812596
 20
-46130.5268093655
 10
-30798.1755295701
 20
-46122.088550809
 10
-30791.260330872
 20
-46108.8659206556
 10
-30784.6473409911
 20
-46091.2933094592
 10
-30792.0983217682
 20
-46075.9464870205
 10
-30797.8563583008
 20
-46066.3744941715
 10
-30811.6145821054
 20
-46069.3002482044
 10
-30815.316047552
 20
-46073.0484061482
 10
-30821.1004401506
 20
-46078.9860234056
 10
-30822.9951197608
 20
-46081.7752217661
 10
-30838.6905475362
 20
-46091.9165782648
 10
-30834.846156024
 20
-46104.5107062442
 10
-30834.9333781835
 20
-46108.7705843074
 10
-30836.3289329747
 20
-46111.3618086419
 10
-30840.9052601465
 20
-46111.2572393101
 10
-30846.2799912502
 20
-46100.9210391881
 10
-30848.1470651425
 20
-46087.8566905786
 10
-30838.5170076455
 20
-46057.436348687
 10
-30830.4069179055
 20
-46044.6172688402
 10
-30822.7078669591
 20
-46035.346911676
 10
-30814.2777743479
 20
-46024.3261859456
 10
-30808.799853623
 20
-46010.0224652335
 10
-30819.0918332392
 20
-45998.6042552958
 10
-30815.3501676237
 20
-45983.2073076103
 10
-30809.085578396
 20
-45966.7873072693
 10
-30794.7341211769
 20
-45936.3499336537
 10
-30785.3773553103
 20
-45919.3747823906
 10
-30782.150326005
 20
-45908.6467108825
 10
-30771.9361377385
 20
-45879.5374263784
 10
-30754.6639882774
 20
-45829.8726805558
 10
-30746.0704410937
 20
-45813.4162848967
 10
-30749.6076614859
 20
-45806.3592647177
 10
-30748.5002996147
 20
-45803.2234163607
 10
-30743.2367800388
 20
-45793.2123779223
 10
-30746.3212247537
 20
-45783.6274363395
 10
-30756.4998308569
 20
-45763.0347619528
 10
-30763.4017541825
 20
-45746.2143147048
 10
-30775.0420369746
 20
-45734.2922595231
 10
-30783.0889601187
 20
-45718.3997609836
 10
-30788.069507226
 20
-45714.6881994394
 10
-30792.1717671742
 20
-45708.572219764
 10
-30794.0981426294
 20
-45704.8157236786
 10
-30792.9826858306
 20
-45696.7096960922
 10
-30795.2418705298
 20
-45684.3540275644
 10
-30791.8653328196
 20
-45674.9244967781
 10
-30782.448485365
 20
-45664.0957461355
 10
-30782.4725816416
 20
-45655.3201317048
 10
-30779.3438552008
 20
-45649.4177043426
 10
-30761.7139260879
 20
-45627.2900589711
 10
-30751.923514766
 20
-45618.4817130768
 10
-30761.7589273814
 20
-45595.6602692484
 10
-30772.2494268377
 20
-45584.1193810173
 10
-30783.9030062911
 20
-45578.7428563188
 10
-30776.2461124661
 20
-45568.4294544965
 10
-30780.3730592185
 20
-45553.726462366
 10
-30779.040957798
 20
-45537.9772571998
 10
-30783.0888835051
 20
-45531.894749443
 10
-30786.49765892
 20
-45529.6752361169
 10
-30796.371286693
 20
-45531.1055967963
 10
-30807.3065875677
 20
-45543.4379051986
 10
-30821.464896123
 20
-45533.8701574437
 10
-30814.4906574274
 20
-45521.8015414571
 10
-30800.263871975
 20
-45503.6561364599
 10
-30792.0814896066
 20
-45498.6143195105
 10
-30782.9938630645
 20
-45482.4587696199
 10
-30775.0838919204
 20
-45489.3370053974
 10
-30767.218649319
 20
-45486.5297308596
 10
-30754.5850997244
 20
-45480.9928948411
 10
-30738.3507698081
 20
-45485.0649540604
 10
-30738.9731540887
 20
-45478.6757399423
 10
-30726.5923296893
 20
-45471.7975041649
 10
-30718.9566370195
 20
-45482.0808420314
 10
-30695.9403372712
 20
-45469.3351382276
 10
-30691.9824403682
 20
-45467.3517945796
 10
-30688.2625404672
 20
-45463.4261409335
 10
-30689.1059447021
 20
-45456.6653854544
 10
-30682.5278571431
 20
-45453.2871856347
 10
-30670.7511803203
 20
-45441.2793493461
 10
-30647.6419070125
 20
-45435.7597335032
 10
-30623.1371542134
 20
-45430.2080091936
 10
-30584.3491439574
 20
-45461.2424045424
 10
-30555.4574738136
 20
-45399.8793972388
 10
-30547.6343495299
 20
-45388.5346070334
 10
-30540.3353230303
 20
-45384.6877124113
 10
-30532.5511498206
 20
-45384.7143570164
 10
-30509.0117622951
 20
-45393.7479288783
 10
-30493.7128332005
 20
-45398.3932446858
 10
-30484.2349042224
 20
-45398.6697092476
 10
-30474.9867527027
 20
-45394.5853485268
 10
-30439.2017474439
 20
-45349.6982498081
 10
-30371.4824482806
 20
-45264.7586909339
 10
-30354.149775531
 20
-45241.5863760419
 10
-30338.7325193868
 20
-45211.3848685006
 10
-30277.2928724538
 20
-45083.1002808647
 10
-30255.4847585302
 20
-45033.3390053798
 10
-30305.2345925444
 20
-45007.0764978529
 10
-30297.6352526942
 20
-44992.0585382353
 10
-30281.7145833726
 20
-44882.7900586953
 10
-30244.5142773962
 20
-44887.2874004093
 10
-30239.6502269907
 20
-44887.8696976384
 10
-30230.3567705503
 20
-44888.9440572063
 10
-30229.7317598495
 20
-44889.0127408309
 10
-30221.7357062074
 20
-44837.0744615114
 10
-30200.2843958026
 20
-44702.4187688299
 10
-30197.4514648519
 20
-44681.9705951668
 10
-30184.032907809
 20
-44593.9721780044
 10
-30181.9797464863
 20
-44581.6867144865
 10
-30177.1577174807
 20
-44538.4022325943
 10
-30168.4447633833
 20
-44477.9348425006
 10
-30152.9028086285
 20
-44370.0848549063
 10
-30143.3877131809
 20
-44300.0680008883
 10
-30142.1168974075
 20
-44288.6674186832
 10
-30138.8201325156
 20
-44267.6327893758
 10
-30132.2545418289
 20
-44225.7742217298
 10
-30125.0832296511
 20
-44176.2515732331
 10
-30121.2848129678
 20
-44159.5786660407
 10
-30117.8182714548
 20
-44152.6342854692
 10
-30110.065631541
 20
-44140.2127273393
 10
-30109.0354365965
 20
-44130.2868599479
 10
-30101.8934488684
 20
-44121.6019920798
 10
-30090.0880316153
 20
-44116.4386358336
 10
-30074.4156086901
 20
-44117.2126313073
 10
-30050.4860371934
 20
-44119.8338839808
 10
-30036.7465779564
 20
-44116.1303201983
 10
-30025.5283195002
 20
-44105.0405766751
 10
-30019.1687146302
 20
-44091.8820298452
 10
-30014.116163159
 20
-44071.3303147032
 10
-30000.3421012942
 20
-43987.2934086411
 10
-29999.2137506397
 20
-43975.0824439661
 10
-29998.9928389172
 20
-43955.202304427
 10
-30002.5206562338
 20
-43931.93690185
 10
-29996.6722257922
 20
-43925.2445609881
 10
-29994.8821236034
 20
-43931.7850920161
 10
-29976.4140977587
 20
-43914.8175332971
 10
-29960.8738772271
 20
-43898.2062094939
 10
-29952.6900559662
 20
-43908.3405593099
 10
-29926.6562439922
 20
-43934.4439708433
 10
-29918.7754320944
 20
-43940.3947420817
 10
-29895.0005674173
 20
-43953.8985143888
 10
-29858.719641187
 20
-43969.3856001371
 10
-29807.26658558
 20
-43988.9171923996
 10
-29790.8998475417
 20
-43998.7681005711
 10
-29748.607174791
 20
-44034.7214977644
 10
-29681.9993636681
 20
-44094.6506974716
 10
-29601.9024111689
 20
-44015.3823729296
 10
-29590.1372002445
 20
-44004.0989552001
 10
-29563.1571634159
 20
-43982.9651567103
 10
-29556.2057352653
 20
-43978.9884463787
 10
-29490.0015923777
 20
-43913.2152266189
 10
-29478.0355835989
 20
-43907.1546250899
 10
-29469.076921818
 20
-43902.7614578051
 10
-29435.84812347
 20
-43890.6468062451
 10
-29401.9273228478
 20
-43858.1638529294
 10
-29405.6646579476
 20
-43854.013378112
 10
-29409.3844543536
 20
-43850.0404673117
 10
-29403.4260217672
 20
-43845.5558574804
 10
-29398.9242591805
 20
-43840.4451637303
 10
-29387.5339743772
 20
-43829.0445527376
 10
-29386.0720098911
 20
-43828.0619838875
 10
-29385.1551999792
 20
-43827.5435761904
 10
-29383.5409655792
 20
-43827.0940321407
 10
-29381.8652101557
 20
-43827.2215908671
 10
-29375.2592603226
 20
-43829.6951828157
 10
-29369.3123002185
 20
-43834.1857504302
 10
-29366.6482755434
 20
-43836.8571416611
 10
-29327.0755576719
 20
-43876.3941131612
 10
-29317.8488076901
 20
-43886.4425500624
 10
-29287.5321237928
 20
-43919.4365852837
 10
-29271.5310048486
 20
-43916.5935317929
 10
-29269.3668944269
 20
-43922.5249569382
 10
-29271.9105496221
 20
-43938.370267915
 10
-29245.7450275142
 20
-43963.6178464145
 10
-29239.0469262337
 20
-43996.0571614043
 10
-29218.7349309051
 20
-43924.7212566103
 10
-29211.5715528893
 20
-43928.5500488655
 10
-29193.2785825236
 20
-43934.1459802572
 10
-29189.2115077251
 20
-43934.4810274499
 10
-29188.1224053828
 20
-43933.9187866442
 10
-29166.1952395981
 20
-43922.6189462943
 10
-29157.8655243855
 20
-43918.8963373962
 10
-29160.233037141
 20
-43916.958198776
 10
-29165.8301301562
 20
-43902.4064473684
 10
-29149.1660276172
 20
-43876.8887300427
 10
-29123.2602508084
 20
-43870.7495148113
 10
-29115.1679462085
 20
-43867.5697083931
 10
-29073.9163515807
 20
-43867.7597809609
 10
-29071.8884588558
 20
-43871.0660455849
 10
-29072.4380565167
 20
-43889.5694338171
 10
-29075.4483595072
 20
-43890.2317012319
 10
-29076.3721395682
 20
-43892.8913047764
 10
-29077.1118385489
 20
-43897.4486222719
 10
-29075.8402577118
 20
-43899.2722228745
 10
-29057.3104875763
 20
-43937.8628931751
 10
-29038.4045263884
 20
-43950.0171938558
 10
-29030.4021928293
 20
-43957.7870235576
 10
-29022.0823016142
 20
-43970.9940524589
 10
-29022.307070407
 20
-43998.2962219906
 10
-28985.3261292226
 20
-44016.3558763065
 10
-28968.8571597547
 20
-44025.7063580274
 10
-28950.561584868
 20
-44038.9790020645
 10
-28939.319744936
 20
-44048.0905716874
 10
-28918.4279306315
 20
-44071.0568346463
 10
-28910.6052286162
 20
-44109.146494003
 10
-28914.020218101
 20
-44114.4606507523
 10
-28916.2289329383
 20
-44122.1972592855
 10
-28916.2548345572
 20
-44130.1850185962
 10
-28909.2946020129
 20
-44140.8691372887
 10
-28932.567148933
 20
-44161.8394081995
 10
-28956.2026079644
 20
-44191.2955234601
 10
-28999.7521683339
 20
-44245.3049268533
 10
-29051.6591728734
 20
-44314.0754989136
 10
-29082.2374223542
 20
-44352.2730992351
 10
-29090.2975727506
 20
-44362.1317656753
 10
-29105.0302094136
 20
-44389.7526936164
 10
-29122.2903702761
 20
-44428.2931547513
 10
-29133.2284118622
 20
-44467.5531720292
 10
-29139.5094119337
 20
-44509.6685127315
 10
-29145.4663350542
 20
-44549.6437210378
 10
-29151.3861584132
 20
-44589.3416891941
 10
-29157.5005592418
 20
-44630.3370393474
 10
-29163.5780799654
 20
-44671.1217137252
 10
-29165.1071526529
 20
-44689.821569649
 10
-29160.9678273564
 20
-44706.9645800915
 10
-29324.1201601918
 20
-44799.0109413791
 10
-29375.3125121275
 20
-44827.8982554015
 10
-29383.0562973087
 20
-44832.2660602282
 10
-29379.3265385268
 20
-44838.846124721
 10
-29375.1642410184
 20
-44846.159830587
 10
-29381.675551953
 20
-44850.4873186287
 10
-29391.0492385349
 20
-44857.2460990357
 10
-29413.0024889498
 20
-44872.9275267138
 10
-29437.426336343
 20
-44890.3647284736
 10
-29440.7688379312
 20
-44892.7500482777
 10
-29465.4166354333
 20
-44914.8571014988
 10
-29477.920237556
 20
-44922.6926849911
 10
-29486.7054130735
 20
-44926.8128860373
 10
-29501.3970735441
 20
-44930.4364938624
 10
-29516.2293300161
 20
-44935.4685783541
 10
-29532.0432989526
 20
-44944.1584808855
 10
-29548.3970491071
 20
-44957.1289366274
 10
-29552.2807939482
 20
-44958.7580149836
 10
-29555.3024881186
 20
-44960.0238387482
 10
-29562.3055120069
 20
-44962.2860415645
 10
-29567.2806611674
 20
-44962.3915880021
 10
-29568.2183904414
 20
-44966.4489643803
 10
-29575.131737805
 20
-44982.6568897061
 10
-29591.1644625023
 20
-45005.3468690054
 10
-29599.3663870194
 20
-45019.7550130098
 10
-29639.3529777796
 20
-45024.525884382
 10
-29652.3610185202
 20
-45047.2905911279
 10
-29665.9048518354
 20
-45043.5622772962
 10
-29672.7214446752
 20
-45041.5093622543
 10
-29674.4983936191
 20
-45041.7697123813
 10
-29684.6122822061
 20
-45044.8202543294
 10
-29692.7120756169
 20
-45047.1452708698
 10
-29747.8359204668
 20
-45061.2731543503
 10
-29738.8677059564
 20
-45094.7410394477
 10
-29780.396261517
 20
-45113.3739150401
 10
-29791.4557524699
 20
-45117.342000091
 10
-29795.8950023354
 20
-45119.7568075511
 10
-29800.5529752043
 20
-45119.8300015178
 10
-29810.3061192803
 20
-45117.9335844561
 10
-29813.0501974298
 20
-45117.4473623039
 10
-29816.1202712804
 20
-45116.8934843503
 10
-29826.2484223892
 20
-45116.0386531276
 10
-29833.4258506098
 20
-45118.9102434808
 10
-29843.138466801
 20
-45118.4450805541
 10
-29852.6506944936
 20
-45109.5489691987
 10
-29865.0580529358
 20
-45107.3995362075
 10
-29872.9076000082
 20
-45105.3208216149
 10
-29882.0013650971
 20
-45101.3630086285
 10
-29895.2329934273
 20
-45093.7080378721
 10
-29920.1480255756
 20
-45089.6194891364
 10
-29925.639055848
 20
-45089.5123158261
 10
-29927.5033999946
 20
-45088.8071251137
 10
-29936.3990238938
 20
-45101.4246901362
 10
-29941.4856878294
 20
-45115.8301076446
 10
-29942.2749421533
 20
-45124.1925023346
 10
-29941.0551201025
 20
-45133.3382360512
 10
-29932.8162875894
 20
-45154.4338134188
 10
-29927.2037534191
 20
-45161.5529465723
 10
-29923.3882507332
 20
-45169.5092090131
 10
-29921.4917901179
 20
-45179.5558408253
 10
-29921.1680611532
 20
-45185.7031253049
 10
-29929.9300284042
 20
-45207.0744845798
 10
-29934.0609985879
 20
-45222.9142654298
 10
-29926.9146994767
 20
-45232.0576919293
 10
-29924.6382863863
 20
-45245.0011895331
 10
-29922.3059840689
 20
-45276.405655707
 10
-29918.7652960317
 20
-45309.5781532111
 10
-29916.6790634906
 20
-45333.3045898871
 10
-29912.4726698421
 20
-45349.0281086035
 10
-29902.9252478178
 20
-45355.5946107536
 10
-29893.4701777372
 20
-45362.6822212689
 10
-29900.6164972058
 20
-45369.7252888862
 10
-29913.9941039787
 20
-45370.3571888871
 10
-29931.1189605527
 20
-45372.3743688039
 10
-29964.8791323031
 20
-45376.3437092386
 10
-29999.7090491136
 20
-45380.4313613714
 10
-29988.6866961495
 20
-45484.687504136
 10
-29977.2527667706
 20
-45590.5980353831
 10
-29977.5805977273
 20
-45596.4657736993
 10
-29942.8264796232
 20
-45593.6092317052
 10
-29907.12330639
 20
-45588.7809658065
 10
-29902.3757661016
 20
-45626.9498810698
 10
-29899.2617830211
 20
-45663.1274528767
 10
-29947.3268881894
 20
-45668.1583401675
 10
-29967.828064987
 20
-45690.422155052
 10
-29996.8419890927
 20
-45719.0031967692
 10
-30043.6641799967
 20
-45763.8881617611
 10
-30044.409618991
 20
-45767.2693866539
 10
-30039.8449674726
 20
-45770.7905275392
 10
-30041.8639580425
 20
-45779.5985552065
 10
-30042.5275171695
 20
-45788.3859759819
 10
-30042.1017071443
 20
-45807.2586657151
 10
-30047.4146659381
 20
-45820.0011544054
 10
-30052.5420608664
 20
-45827.4946675409
 10
-30092.304296203
 20
-45858.6130488841
 10
-30102.0452122947
 20
-45868.9865623662
 10
-30103.9198876133
 20
-45871.298927941
 10
-30107.1920993382
 20
-45890.2922724144
 10
-30125.271467553
 20
-45898.2412710607
 10
-30127.6288662424
 20
-45906.6316299749
 10
-30133.4239566492
 20
-45932.0067114643
 10
-30136.575554473
 20
-45950.1461973393
 10
-30138.7906377235
 20
-45959.3247225436
 10
-30140.5671599611
 20
-45980.8636794313
 10
-30140.6219100477
 20
-45997.0721362027
 10
-30139.2069867858
 20
-46010.1458953104
 10
-30135.1063559504
 20
-46019.6009178473
 10
-30130.2626588604
 20
-46026.3958370371
 10
-30112.3176765728
 20
-46036.8627818703
 10
-30108.2039030118
 20
-46042.4348623593
 10
-30107.2471934058
 20
-46048.9725796736
 10
-30107.3852052351
 20
-46089.8764620961
 10
-30108.8989766673
 20
-46106.079992931
 10
-30107.2221526053
 20
-46114.073480587
 10
-30099.2539570539
 20
-46129.5878758686
 10
-30082.0916751366
 20
-46157.2370427353
 10
-30082.183041978
 20
-46184.3398820944
 10
-30073.9643246246
 20
-46198.1576830655
 10
-30065.7317515426
 20
-46207.870666388
 10
-30060.9091814287
 20
-46218.2932785973
 10
-30047.3490870929
 20
-46233.8264588748
 10
-30027.6980419617
 20
-46246.4734337258
 10
-30027.4326848183
 20
-46269.9607580444
 10
-30027.8381065555
 20
-46288.0984180174
 10
-30024.2486040295
 20
-46304.0861494629
 10
-30018.9503840851
 20
-46318.6262863459
 10
-29998.8625991925
 20
-46347.0062428539
 10
-29992.5905182683
 20
-46360.3403680552
 10
-29987.7913390594
 20
-46377.7743939455
 10
-29986.387531258
 20
-46394.2429069782
 10
-29988.1302767888
 20
-46408.5152887372
 10
-29998.7467281515
 20
-46455.4302684468
 10
-29989.9470505973
 20
-46458.2999592697
 10
-29988.4820278382
 20
-46475.4343282996
 10
-29982.8901535103
 20
-46475.4531168225
 10
-29977.8580095045
 20
-46507.1994343446
 10
-29959.2923277473
 20
-46505.8971916293
 10
-29942.7694642652
 20
-46508.3711787098
 10
-29933.5334465842
 20
-46508.1691837189
 10
-29921.3554131452
 20
-46503.6059289033
 10
-29931.256585206
 20
-46483.2481537492
 10
-29919.8079545592
 20
-46474.5665025366
 10
-29912.0220532091
 20
-46474.3596238646
 10
-29900.331985714
 20
-46466.6439524509
 10
-29892.785107238
 20
-46464.7388436976
 10
-29875.5323979898
 20
-46465.761811542
 10
-29872.0906965202
 20
-46455.6110457516
 10
-29851.6936499465
 20
-46462.2137800488
 10
-29828.8717320419
 20
-46470.0338402617
 10
-29827.2835735326
 20
-46504.6530475557
 10
-29816.8443848795
 20
-46507.8275892071
 10
-29803.9502994742
 20
-46505.9402687864
 10
-29795.1996185137
 20
-46504.5161481124
 10
-29789.5131846885
 20
-46476.2116436479
 10
-29769.5584389603
 20
-46471.4411596927
 10
-29741.6194609923
 20
-46474.9291380442
 10
-29720.9694839326
 20
-46479.1027857153
 10
-29698.6366117073
 20
-46489.5834897191
 10
-29683.3291746157
 20
-46489.6344165095
 10
-29675.5480633581
 20
-46490.8695610892
 10
-29669.7342256549
 20
-46495.004838247
 10
-29664.4087619993
 20
-46501.5570230072
 10
-29657.1500374338
 20
-46512.7197204509
 10
-29649.1598004514
 20
-46521.9433576458
 10
-29642.3671203709
 20
-46526.0818683257
 10
-29610.039748904
 20
-46529.0847682461
 10
-29601.3035394327
 20
-46532.0204282059
 10
-29592.084319584
 20
-46536.8880710144
 10
-29590.53613064
 20
-46583.8438348291
 10
-29582.2637687394
 20
-46581.8188327446
 10
-29571.8730917414
 20
-46602.4219030451
 10
-29536.6950048752
 20
-46584.8764394557
 10
-29505.705479189
 20
-46593.9816712585
 10
-29508.8006852888
 20
-46603.611201347
 10
-29514.3032739108
 20
-46609.1137899689
 10
-29519.5254366574
 20
-46613.8558070037
 10
-29519.546242459
 20
-46620.1461453564
 10
-29527.4645041997
 20
-46624.7129472858
 10
-29517.936266145
 20
-46645.8012428246
 10
-29530.2178266411
 20
-46648.7893291729
 10
-29526.9633824482
 20
-46656.7879149613
 10
-29524.2767157881
 20
-46664.4835879775
 10
-29531.62844694
 20
-46669.7194019512
 10
-29554.8757452129
 20
-46680.6478876703
 10
-29578.3591694968
 20
-46650.6823376705
 10
-29593.4761913449
 20
-46664.1893285797
 10
-29610.7718606223
 20
-46675.9916546726
 10
-29625.8648534735
 20
-46682.2319746258
 10
-29641.8070099828
 20
-46687.6262903442
 10
-29636.189204724
 20
-46715.3582394333
 10
-29635.5069119026
 20
-46730.9700333863
  0
ENDSEC
  0
SECTION
  2
OBJECTS
  0
DICTIONARY
  5
C
330
0
100
AcDbDictionary
281
     1
  3
ACAD_GROUP
350
D
  3
ACAD_LAYOUT
350
1A
  3
ACAD_MLEADERSTYLE
350
43
  3
ACAD_PLOTSETTINGS
350
19
  3
ACAD_PLOTSTYLENAME
350
E
  3
ACAD_TABLESTYLE
350
42
  0
DICTIONARY
  5
D
102
{ACAD_REACTORS
330
C
102
}
330
C
100
AcDbDictionary
281
     1
  0
DICTIONARY
  5
1A
102
{ACAD_REACTORS
330
C
102
}
330
C
100
AcDbDictionary
281
     1
  3
Layout1
350
1E
  3
Model
350
22
  0
DICTIONARY
  5
43
102
{ACAD_REACTORS
330
C
102
}
330
C
100
AcDbDictionary
281
     1
  0
DICTIONARY
  5
19
102
{ACAD_REACTORS
330
C
102
}
330
C
100
AcDbDictionary
281
     1
  0
ACDBDICTIONARYWDFLT
  5
E
102
{ACAD_REACTORS
330
C
102
}
330
C
100
AcDbDictionary
281
     1
  3
Normal
350
F
100
AcDbDictionaryWithDefault
340
F
  0
DICTIONARY
  5
42
102
{ACAD_REACTORS
330
C
102
}
330
C
100
AcDbDictionary
281
     1
  0
LAYOUT
  5
1E
102
{ACAD_REACTORS
330
1A
102
}
330
1A
100
AcDbPlotSettings
  1

  2
none_device
  4

  6

 40
0.0
 41
0.0
 42
0.0
 43
0.0
 44
0.0
 45
0.0
 46
0.0
 47
0.0
 48
0.0
 49
0.0
140
0.0
141
0.0
142
1.0
143
1.0
 70
   688
 72
     0
 73
     0
 74
     5
  7

 75
    16
 76
     0
 77
     2
 78
   300
147
1.0
148
0.0
149
0.0
100
AcDbLayout
  1
Layout1
 70
     1
 71
     1
 10
0.0
 20
0.0
 11
12.0
 21
9.0
 12
0.0
 22
0.0
 32
0.0
 14
1.000000000000000E+20
 24
1.000000000000000E+20
 34
1.000000000000000E+20
 15
-1.000000000000000E+20
 25
-1.000000000000000E+20
 35
-1.000000000000000E+20
146
0.0
 13
0.0
 23
0.0
 33
0.0
 16
1.0
 26
0.0
 36
0.0
 17
0.0
 27
1.0
 37
0.0
 76
     0
330
1B
  0
LAYOUT
  5
22
102
{ACAD_REACTORS
330
1A
102
}
330
1A
100
AcDbPlotSettings
  1

  2
none_device
  4

  6

 40
0.0
 41
0.0
 42
0.0
 43
0.0
 44
0.0
 45
0.0
 46
0.0
 47
0.0
 48
0.0
 49
0.0
140
0.0
141
0.0
142
1.0
143
1.0
 70
  1712
 72
     0
 73
     0
 74
     0
  7

 75
     0
 76
     0
 77
     2
 78
   300
147
1.0
148
0.0
149
0.0
100
AcDbLayout
  1
Model
 70
     1
 71
     0
 10
0.0
 20
0.0
 11
12.0
 21
9.0
 12
0.0
 22
0.0
 32
0.0
 14
30.0
 24
49.75
 34
0.0
 15
130.5
 25
163.1318914119703
 35
0.0
146
0.0
 13
0.0
 23
0.0
 33
0.0
 16
1.0
 26
0.0
 36
0.0
 17
0.0
 27
1.0
 37
0.0
 76
     0
330
1F
331
29
  0
ACDBPLACEHOLDER
  5
F
102
{ACAD_REACTORS
330
E
102
}
330
E
  0
ENDSEC
  0
EOF
